<svg width="216" height="48" viewBox="0 0 216 48" fill="none" xmlns="http://www.w3.org/2000/svg">
<path d="M36.3125 34.875C36.3125 36.6042 35.9896 38.0938 35.3438 39.3438C34.7188 40.5938 33.875 41.6562 32.8125 42.5312C31.75 43.4062 30.5208 44.125 29.125 44.6875C27.75 45.2292 26.3125 45.6562 24.8125 45.9688C23.3125 46.2812 21.8021 46.4896 20.2812 46.5938C18.7812 46.6979 17.375 46.75 16.0625 46.75C14.7708 46.75 13.4271 46.6979 12.0312 46.5938C10.6562 46.5104 9.28125 46.3542 7.90625 46.125C6.53125 45.8958 5.17708 45.5938 3.84375 45.2188C2.51042 44.8229 1.25 44.3333 0.0625 43.75L0 3.5C1.16667 3.02083 2.40625 2.59375 3.71875 2.21875C5.03125 1.82292 6.36458 1.5 7.71875 1.25C9.09375 0.979167 10.4583 0.78125 11.8125 0.65625C13.1667 0.510417 14.4792 0.4375 15.75 0.4375C17.2292 0.4375 18.7188 0.53125 20.2188 0.71875C21.7396 0.90625 23.1979 1.21875 24.5938 1.65625C25.9896 2.09375 27.2917 2.66667 28.5 3.375C29.7083 4.0625 30.7604 4.91667 31.6562 5.9375C32.5729 6.95833 33.2812 8.14583 33.7812 9.5C34.3021 10.8542 34.5625 12.4167 34.5625 14.1875C34.5625 15.3542 34.3958 16.4479 34.0625 17.4688C33.7292 18.4896 33.25 19.4062 32.625 20.2188C32 21.0312 31.2396 21.7292 30.3438 22.3125C29.4479 22.875 28.4375 23.2917 27.3125 23.5625C28.6667 23.9167 29.8958 24.4375 31 25.125C32.125 25.8125 33.0729 26.6458 33.8438 27.625C34.6354 28.6042 35.2396 29.7083 35.6562 30.9375C36.0938 32.1667 36.3125 33.4792 36.3125 34.875ZM20.4375 17.0625C20.4375 16.4583 20.3125 15.9479 20.0625 15.5312C19.8125 15.0938 19.5 14.7396 19.125 14.4688C18.7708 14.1979 18.375 14 17.9375 13.875C17.5208 13.75 17.1458 13.6875 16.8125 13.6875C16.3958 13.6875 15.9896 13.75 15.5938 13.875C15.1979 14 14.8125 14.1458 14.4375 14.3125L14.25 21.25C14.7292 21.25 15.3229 21.2083 16.0312 21.125C16.7396 21.0417 17.4167 20.8646 18.0625 20.5938C18.7292 20.3021 19.2917 19.8854 19.75 19.3438C20.2083 18.7812 20.4375 18.0208 20.4375 17.0625ZM16 27.25C15.3958 27.25 14.8125 27.3125 14.25 27.4375L14.125 34.5625C14.4375 34.625 14.7396 34.6875 15.0312 34.75C15.3438 34.7917 15.6458 34.8125 15.9375 34.8125C16.375 34.8125 16.8542 34.7708 17.375 34.6875C17.8958 34.5833 18.3854 34.3958 18.8438 34.125C19.3021 33.8333 19.6771 33.4479 19.9688 32.9688C20.2812 32.4896 20.4375 31.8542 20.4375 31.0625C20.4375 30.2708 20.2812 29.625 19.9688 29.125C19.6771 28.625 19.3125 28.2396 18.875 27.9688C18.4375 27.6771 17.9583 27.4896 17.4375 27.4062C16.9167 27.3021 16.4375 27.25 16 27.25ZM76.0625 23.9375C76.0625 25.8333 75.8438 27.6667 75.4062 29.4375C74.9688 31.1875 74.3333 32.8333 73.5 34.375C72.6875 35.9167 71.6875 37.3333 70.5 38.625C69.3333 39.8958 68.0104 40.9896 66.5312 41.9062C65.0729 42.8229 63.4792 43.5417 61.75 44.0625C60.0208 44.5625 58.1875 44.8125 56.25 44.8125C54.375 44.8125 52.5833 44.5729 50.875 44.0938C49.1875 43.6146 47.6042 42.9479 46.125 42.0938C44.6458 41.2188 43.3021 40.1771 42.0938 38.9688C40.9062 37.7396 39.8854 36.3854 39.0312 34.9062C38.1979 33.4062 37.5417 31.8021 37.0625 30.0938C36.6042 28.3854 36.375 26.6042 36.375 24.75C36.375 22.9375 36.5938 21.1667 37.0312 19.4375C37.4688 17.6875 38.0938 16.0417 38.9062 14.5C39.7396 12.9583 40.7396 11.5417 41.9062 10.25C43.0729 8.95833 44.375 7.84375 45.8125 6.90625C47.2708 5.96875 48.8438 5.23958 50.5312 4.71875C52.2188 4.19792 54 3.9375 55.875 3.9375C58.8958 3.9375 61.6458 4.40625 64.125 5.34375C66.625 6.28125 68.75 7.625 70.5 9.375C72.2708 11.1042 73.6354 13.2083 74.5938 15.6875C75.5729 18.1458 76.0625 20.8958 76.0625 23.9375ZM62.1875 24.75C62.1875 23.8542 62.0521 22.9896 61.7812 22.1562C61.5312 21.3021 61.1562 20.5521 60.6562 19.9062C60.1562 19.2396 59.5312 18.7083 58.7812 18.3125C58.0521 17.8958 57.2083 17.6875 56.25 17.6875C55.2708 17.6875 54.3958 17.8646 53.625 18.2188C52.8542 18.5729 52.1875 19.0625 51.625 19.6875C51.0833 20.2917 50.6667 21.0104 50.375 21.8438C50.0833 22.6562 49.9375 23.5208 49.9375 24.4375C49.9375 25.3125 50.0625 26.1875 50.3125 27.0625C50.5625 27.9375 50.9375 28.7292 51.4375 29.4375C51.9375 30.1458 52.5521 30.7188 53.2812 31.1562C54.0312 31.5938 54.8958 31.8125 55.875 31.8125C56.8542 31.8125 57.7292 31.625 58.5 31.25C59.2917 30.8542 59.9583 30.3333 60.5 29.6875C61.0417 29.0208 61.4583 28.2604 61.75 27.4062C62.0417 26.5521 62.1875 25.6667 62.1875 24.75ZM116.875 23.9375C116.875 25.8333 116.656 27.6667 116.219 29.4375C115.781 31.1875 115.146 32.8333 114.312 34.375C113.5 35.9167 112.5 37.3333 111.312 38.625C110.146 39.8958 108.823 40.9896 107.344 41.9062C105.885 42.8229 104.292 43.5417 102.562 44.0625C100.833 44.5625 99 44.8125 97.0625 44.8125C95.1875 44.8125 93.3958 44.5729 91.6875 44.0938C90 43.6146 88.4167 42.9479 86.9375 42.0938C85.4583 41.2188 84.1146 40.1771 82.9062 38.9688C81.7188 37.7396 80.6979 36.3854 79.8438 34.9062C79.0104 33.4062 78.3542 31.8021 77.875 30.0938C77.4167 28.3854 77.1875 26.6042 77.1875 24.75C77.1875 22.9375 77.4062 21.1667 77.8438 19.4375C78.2812 17.6875 78.9062 16.0417 79.7188 14.5C80.5521 12.9583 81.5521 11.5417 82.7188 10.25C83.8854 8.95833 85.1875 7.84375 86.625 6.90625C88.0833 5.96875 89.6562 5.23958 91.3438 4.71875C93.0312 4.19792 94.8125 3.9375 96.6875 3.9375C99.7083 3.9375 102.458 4.40625 104.938 5.34375C107.438 6.28125 109.562 7.625 111.312 9.375C113.083 11.1042 114.448 13.2083 115.406 15.6875C116.385 18.1458 116.875 20.8958 116.875 23.9375ZM103 24.75C103 23.8542 102.865 22.9896 102.594 22.1562C102.344 21.3021 101.969 20.5521 101.469 19.9062C100.969 19.2396 100.344 18.7083 99.5938 18.3125C98.8646 17.8958 98.0208 17.6875 97.0625 17.6875C96.0833 17.6875 95.2083 17.8646 94.4375 18.2188C93.6667 18.5729 93 19.0625 92.4375 19.6875C91.8958 20.2917 91.4792 21.0104 91.1875 21.8438C90.8958 22.6562 90.75 23.5208 90.75 24.4375C90.75 25.3125 90.875 26.1875 91.125 27.0625C91.375 27.9375 91.75 28.7292 92.25 29.4375C92.75 30.1458 93.3646 30.7188 94.0938 31.1562C94.8438 31.5938 95.7083 31.8125 96.6875 31.8125C97.6667 31.8125 98.5417 31.625 99.3125 31.25C100.104 30.8542 100.771 30.3333 101.312 29.6875C101.854 29.0208 102.271 28.2604 102.562 27.4062C102.854 26.5521 103 25.6667 103 24.75ZM158.688 1.25L143.625 22.0625L156.312 44.1875L141.812 46.75L132.312 33.25L131.812 47.375L118.812 47.875L119.812 0L134.375 0.8125L133.25 14.9375L142.938 0L158.688 1.25ZM175.25 2L171.812 44.5625L158.625 45.25V2.875L175.25 2ZM215.625 23.9375C215.625 25.8333 215.406 27.6667 214.969 29.4375C214.531 31.1875 213.896 32.8333 213.062 34.375C212.25 35.9167 211.25 37.3333 210.062 38.625C208.896 39.8958 207.573 40.9896 206.094 41.9062C204.635 42.8229 203.042 43.5417 201.312 44.0625C199.583 44.5625 197.75 44.8125 195.812 44.8125C193.938 44.8125 192.146 44.5729 190.438 44.0938C188.75 43.6146 187.167 42.9479 185.688 42.0938C184.208 41.2188 182.865 40.1771 181.656 38.9688C180.469 37.7396 179.448 36.3854 178.594 34.9062C177.76 33.4062 177.104 31.8021 176.625 30.0938C176.167 28.3854 175.938 26.6042 175.938 24.75C175.938 22.9375 176.156 21.1667 176.594 19.4375C177.031 17.6875 177.656 16.0417 178.469 14.5C179.302 12.9583 180.302 11.5417 181.469 10.25C182.635 8.95833 183.938 7.84375 185.375 6.90625C186.833 5.96875 188.406 5.23958 190.094 4.71875C191.781 4.19792 193.562 3.9375 195.438 3.9375C198.458 3.9375 201.208 4.40625 203.688 5.34375C206.188 6.28125 208.312 7.625 210.062 9.375C211.833 11.1042 213.198 13.2083 214.156 15.6875C215.135 18.1458 215.625 20.8958 215.625 23.9375ZM201.75 24.75C201.75 23.8542 201.615 22.9896 201.344 22.1562C201.094 21.3021 200.719 20.5521 200.219 19.9062C199.719 19.2396 199.094 18.7083 198.344 18.3125C197.615 17.8958 196.771 17.6875 195.812 17.6875C194.833 17.6875 193.958 17.8646 193.188 18.2188C192.417 18.5729 191.75 19.0625 191.188 19.6875C190.646 20.2917 190.229 21.0104 189.938 21.8438C189.646 22.6562 189.5 23.5208 189.5 24.4375C189.5 25.3125 189.625 26.1875 189.875 27.0625C190.125 27.9375 190.5 28.7292 191 29.4375C191.5 30.1458 192.115 30.7188 192.844 31.1562C193.594 31.5938 194.458 31.8125 195.438 31.8125C196.417 31.8125 197.292 31.625 198.062 31.25C198.854 30.8542 199.521 30.3333 200.062 29.6875C200.604 29.0208 201.021 28.2604 201.312 27.4062C201.604 26.5521 201.75 25.6667 201.75 24.75Z" fill="white"/>
</svg>
