<svg width="16" height="16" viewBox="0 0 16 16" fill="none" xmlns="http://www.w3.org/2000/svg">
<path d="M13.9891 13.3347C13.9891 13.7236 13.9081 14.1079 13.7514 14.4605C13.5948 14.8131 13.3665 15.1254 13.0827 15.3756C12.7987 15.6258 12.466 15.8078 12.1079 15.9087C11.7498 16.0096 11.375 16.0271 11.0097 15.96C10.6445 15.8928 10.2977 15.7425 9.99372 15.5197C9.68974 15.297 9.43592 15.0072 9.25009 14.6706C9.06427 14.334 8.95093 13.9588 8.91806 13.5713C8.88518 13.1839 8.93355 12.7936 9.05978 12.4279L5.31955 9.90722C4.96233 10.2748 4.5096 10.5235 4.01814 10.6222C3.52667 10.7209 3.01838 10.6651 2.55701 10.4619C2.09565 10.2587 1.70175 9.9171 1.42475 9.47996C1.14777 9.04282 1 8.52961 1 8.00472C1 7.47982 1.14777 6.96662 1.42475 6.52948C1.70175 6.09234 2.09565 5.75075 2.55701 5.54753C3.01838 5.34433 3.52667 5.28858 4.01814 5.38726C4.5096 5.48593 4.96233 5.73465 5.31955 6.10222L9.05978 3.58529C8.8456 2.96794 8.85578 2.28945 9.08837 1.67947C9.32095 1.06949 9.75964 0.570792 10.3206 0.278663C10.8816 -0.0134668 11.5255 -0.0785398 12.1292 0.0958804C12.7331 0.270289 13.2544 0.671967 13.5938 1.22415C13.9331 1.77634 14.0666 2.44031 13.9687 3.0892C13.8708 3.73808 13.5484 4.32639 13.0631 4.74171C12.5779 5.15703 11.9638 5.37022 11.3382 5.34057C10.7125 5.31092 10.1192 5.04049 9.67163 4.58096L5.93139 7.10159C6.13354 7.68755 6.13354 8.32929 5.93139 8.91525L9.67163 11.4359C10.0287 11.0693 10.4809 10.8213 10.9718 10.7229C11.4625 10.6246 11.97 10.6801 12.4308 10.8828C12.8917 11.0854 13.2852 11.4262 13.5624 11.8623C13.8396 12.2984 13.988 12.8106 13.9891 13.3347Z" fill="black"/>
</svg>
