<svg xmlns="http://www.w3.org/2000/svg" width="24" height="24" viewBox="0 0 512 512" fill="none">
  <path
    fill="currentColor"
    d="M240 510.8 c-50.7 -2.7 -103.8 -23.4 -145 -56.5 -10.9 -8.7 -28.6 -26.4 -37.3 -37.3 -29.6 -36.7 -49 -82.3 -55.2 -129.5 -2.1 -15.7 -2.1 -47 0 -63 6.1 -47 25 -91.6 54.5 -128.5 37.8 -47.3 93.4 -80.4 154 -91.4 30.3 -5.5 66.9 -5 97.7 1.4 97.9 20.4 176.9 99.4 197.3 197.2 6.4 30.7 6.9 67.7 1.4 97.8 -12.7 69.6 -53 130.3 -112.4 169.2 -15 9.9 -39.9 21.8 -57.5 27.7 -32.8 10.9 -62.4 14.8 -97.5 12.9z m-8.5 -126.9 c2.6 -1.2 6.1 -3.6 7.9 -5.3 1.7 -1.7 39.4 -44.2 83.6 -94.4 54.5 -61.7 81.5 -93 83.5 -96.9 6.1 -11.5 3.1 -27.4 -6.7 -35.8 -10.9 -9.3 -27.8 -9.9 -38.6 -1.3 -2.2 1.8 -35.6 39.2 -74.2 83.1 -38.6 43.8 -70.4 79.7 -70.8 79.7 -0.4 0 -15.5 -13 -33.5 -28.9 -18.7 -16.5 -34.8 -30 -37.5 -31.3 -6.6 -3.3 -18.7 -3.3 -25.3 0 -15.4 7.6 -21.9 26 -14.3 40.8 2.6 5.3 7.5 9.9 49.2 47 44.2 39.3 50.1 44 57.7 45.8 4.1 1 14.4 -0.4 19 -2.5z"
  />
</svg>