<svg width="12" height="12" viewBox="0 0 12 12" fill="none" xmlns="http://www.w3.org/2000/svg">
<path fill-rule="evenodd" clip-rule="evenodd" d="M7.38705 2.06663C7.5137 2.02665 7.64702 2.00666 7.78033 2.00666L7.77366 2C7.90698 2 8.04029 2.01999 8.16694 2.05997C8.45356 2.15324 8.64687 2.34646 8.92683 2.62564L9.37343 3.07138C9.66005 3.35121 9.84669 3.54377 9.94001 3.83093C10.02 4.09078 10.02 4.36329 9.94001 4.61714C9.84669 4.90364 9.65338 5.09619 9.37343 5.3767L5.73397 9.01457C5.65398 9.10119 5.59399 9.16116 5.50733 9.22112C5.43401 9.27442 5.35402 9.32106 5.26737 9.35438C5.17477 9.39107 5.07907 9.41939 4.98141 9.43899L4.97474 9.44033L2.8284 9.98001C2.77507 10 2.72175 10 2.66842 10C2.49511 10 2.3218 9.93337 2.19516 9.80678C2.11295 9.72595 2.05361 9.62481 2.02317 9.51364C1.99273 9.40247 1.99228 9.28522 2.02185 9.17382L2.56177 7.0284L2.5631 7.02174C2.5891 6.9118 2.6091 6.82718 2.64842 6.73524C2.68175 6.64862 2.72841 6.56867 2.78174 6.49538C2.84173 6.41542 2.90838 6.3488 2.98837 6.26884L6.62717 2.63163C6.91379 2.34513 7.10043 2.15991 7.38705 2.06663ZM7.96697 2.69893C7.90655 2.68026 7.84356 2.67127 7.78033 2.67227V2.67894C7.71367 2.67894 7.65368 2.6856 7.59369 2.70559C7.46038 2.74557 7.34039 2.8655 7.10043 3.10536L6.67249 3.53311L8.47223 5.33206L8.90483 4.90031L8.96749 4.83568C9.15946 4.63913 9.26211 4.53386 9.30477 4.40726C9.34476 4.28733 9.34476 4.15408 9.30477 4.03415C9.26478 3.90089 9.14479 3.78096 8.90483 3.54177L8.45823 3.09603L8.39424 3.0334C8.19693 2.84151 8.09228 2.7389 7.96563 2.69693L7.96697 2.69893ZM8.00296 5.80378L6.20323 4.00483L3.4703 6.74323C3.44542 6.77077 3.42364 6.79387 3.40498 6.81253C3.34805 6.86662 3.3023 6.93136 3.27033 7.00308C3.25767 7.02773 3.25033 7.05772 3.24034 7.09836C3.23456 7.12368 3.22678 7.15388 3.21701 7.18897L2.67709 9.33439L4.82343 8.7947C4.91675 8.77471 4.96341 8.76139 5.01007 8.74207C5.05007 8.72208 5.09006 8.70209 5.12339 8.67544C5.16338 8.64879 5.19671 8.61547 5.27003 8.54218L8.00296 5.81044V5.80378Z" fill="black"/>
</svg>
